# xmcd CD database file
#
# Track frame offsets:
#	150
#	21794
#	46149
#	92753
#	113170
#	130433
#	152043
#	174098
#	193159
#	206660
#
# Disc length: 2872 seconds
#
# Revision: 0
# Processed by: cddbd v1.5.1PL0 Copyright (c) Steve Scherf et al.
# Submitted via: CDex 1.51
#
DISCID=800b360a
DTITLE=Nik Tyndall - Sounds Of Silence
DYEAR=1992
DGENRE=New Age
TTITLE0=Sounds Of Silence
TTITLE1=Morning Dew
TTITLE2=Quiet Land
TTITLE3=White Mountains
TTITLE4=Evening Wind
TTITLE5=Island Of Birds
TTITLE6=Blue Horizon
TTITLE7=Time Of The Wind
TTITLE8=Night Light
TTITLE9=Open Rooms
EXTD=YEAR: 1992
EXTT0=
EXTT1=
EXTT2=
EXTT3=
EXTT4=
EXTT5=
EXTT6=
EXTT7=
EXTT8=
EXTT9=
PLAYORDER=
